<svg width="156" height="40" viewBox="0 0 156 40" fill="none" xmlns="http://www.w3.org/2000/svg">
<g clip-path="url(#clip0_45337_26561)">
<path fill-rule="evenodd" clip-rule="evenodd" d="M50.3487 27.4877C50.1192 27.4877 49.9355 27.2935 49.9355 27.0778V12.7971C49.9355 12.5813 50.1192 12.3872 50.3487 12.3872H55.7882C60.2178 12.3872 63.8442 15.7741 63.8442 19.9158C63.8442 24.1009 60.2178 27.4877 55.7882 27.4877H50.3487ZM52.8963 14.9974V24.8559H55.5128C58.4965 24.8559 60.6768 22.7418 60.6768 19.9158C60.6768 17.1115 58.4965 14.9974 55.5128 14.9974H52.8963ZM75.2875 27.499H73.3308C72.9933 27.499 72.8134 27.2223 72.9484 26.9455L79.9437 12.6213C80.0113 12.4936 80.123 12.3872 80.3258 12.3872H80.5511C80.7755 12.3872 80.8656 12.4936 80.9332 12.6213L87.8609 26.9455C87.9952 27.2223 87.8159 27.499 87.4779 27.499H85.5213C85.1843 27.499 85.0266 27.3713 84.8688 27.0733L83.7666 24.7746H77.0419L75.9398 27.0733C75.8499 27.2861 75.6475 27.499 75.2875 27.499ZM80.3483 17.7295L78.144 22.412H82.6654L80.4159 17.7295H80.3483ZM97.4549 27.4877C97.133 27.4877 96.9033 27.2503 96.9033 26.9699V12.905C96.9033 12.6245 97.133 12.3872 97.4549 12.3872H99.4792C99.7773 12.3872 100.031 12.6245 100.031 12.905V18.7294L105.825 12.6029C105.917 12.4951 106.055 12.3872 106.262 12.3872H108.562C108.999 12.3872 109.229 12.8403 108.93 13.1638L102.929 19.506L109.367 26.7327C109.597 27.0131 109.413 27.4877 108.953 27.4877H106.446C106.217 27.4877 106.079 27.4014 106.032 27.3366L100.031 20.3905V26.9699C100.031 27.2503 99.7773 27.4877 99.4792 27.4877H97.4549ZM120.831 27.4675H118.878C118.542 27.4675 118.362 27.1913 118.497 26.9152L125.476 12.6209C125.544 12.4934 125.656 12.3872 125.857 12.3872H126.082C126.306 12.3872 126.396 12.4934 126.464 12.6209L133.376 26.9152C133.51 27.1913 133.331 27.4675 132.994 27.4675H131.041C130.705 27.4675 130.548 27.34 130.391 27.0427L129.291 24.7488H122.581L121.482 27.0427C121.392 27.2551 121.19 27.4675 120.831 27.4675ZM125.88 17.7184L123.681 22.3911H128.192L125.947 17.7184H125.88ZM142.894 27.4675C142.66 27.4675 142.452 27.2736 142.452 27.0582V12.7965C142.452 12.5811 142.66 12.3872 142.894 12.3872H145.058C145.29 12.3872 145.499 12.5811 145.499 12.7965V27.0582C145.499 27.2736 145.29 27.4675 145.058 27.4675H142.894Z" fill="url(#paint0_linear_45337_26561)"/>
<path fill-rule="evenodd" clip-rule="evenodd" d="M16.1678 12.192L20.1871 5.23037L35.1572 31.1592L27.1186 31.1592L16.1678 12.192Z" fill="url(#paint1_linear_45337_26561)"/>
<path fill-rule="evenodd" clip-rule="evenodd" d="M9.24195 24.1978L5.22266 31.1594L35.1627 31.1594L31.1434 24.1978H9.24195Z" fill="url(#paint2_linear_45337_26561)"/>
<path fill-rule="evenodd" clip-rule="evenodd" d="M16.1703 12.1974L5.22266 31.1593L13.2612 31.1593L20.1896 19.159L16.1703 12.1974ZM24.2089 12.1974L24.212 12.1921L20.1927 5.23047L20.1896 5.23575L24.2089 12.1974Z" fill="url(#paint3_linear_45337_26561)"/>
</g>
<defs>
<linearGradient id="paint0_linear_45337_26561" x1="92.7678" y1="27.3287" x2="92.7678" y2="12.3872" gradientUnits="userSpaceOnUse">
<stop stop-color="white"/>
<stop offset="1" stop-color="white"/>
</linearGradient>
<linearGradient id="paint1_linear_45337_26561" x1="20.1932" y1="5.23037" x2="35.1632" y2="31.2907" gradientUnits="userSpaceOnUse">
<stop stop-color="white"/>
<stop offset="1" stop-color="#ADB5BD"/>
</linearGradient>
<linearGradient id="paint2_linear_45337_26561" x1="5.22266" y1="31.1733" x2="35.1627" y2="31.1733" gradientUnits="userSpaceOnUse">
<stop stop-color="#ADB5BD"/>
<stop offset="1" stop-color="white"/>
</linearGradient>
<linearGradient id="paint3_linear_45337_26561" x1="20.0751" y1="5.23047" x2="5.22266" y2="31.1733" gradientUnits="userSpaceOnUse">
<stop stop-color="#ADB5BD"/>
<stop offset="1" stop-color="white"/>
</linearGradient>
<clipPath id="clip0_45337_26561">
<rect width="155.616" height="40" fill="white"/>
</clipPath>
</defs>
</svg>
